<?xml version="1.0" encoding="UTF-8"?>
<svg width="178px" height="164px" viewBox="0 0 178 164" version="1.1" xmlns="http://www.w3.org/2000/svg" xmlns:xlink="http://www.w3.org/1999/xlink">
    <title>logo_mark</title>
    <defs>
        <linearGradient x1="8.05369259%" y1="19.2266077%" x2="106.711401%" y2="79.3353896%" id="linearGradient-1">
            <stop stop-color="#89D48B" offset="0%"></stop>
            <stop stop-color="#CBE9B2" offset="50%"></stop>
            <stop stop-color="#89D48B" offset="100%"></stop>
        </linearGradient>
        <linearGradient x1="0.938965088%" y1="20.3145286%" x2="90.1408425%" y2="80.8889339%" id="linearGradient-2">
            <stop stop-color="#A7DEA7" offset="0%"></stop>
            <stop stop-color="#F8FCF8" offset="46.206793%"></stop>
            <stop stop-color="#F8FCF8" offset="60.57682%"></stop>
            <stop stop-color="#A7DEA7" offset="100%"></stop>
        </linearGradient>
        <linearGradient x1="36.6508454%" y1="64.7352262%" x2="65.7721349%" y2="32.0514041%" id="linearGradient-3">
            <stop stop-color="#A5A7AA" offset="0%"></stop>
            <stop stop-color="#E0E1E2" offset="55.87039%"></stop>
            <stop stop-color="#A5A7AA" offset="100%"></stop>
        </linearGradient>
        <linearGradient x1="2.71478208%" y1="46.2115985%" x2="107.737476%" y2="45.1348765%" id="linearGradient-4">
            <stop stop-color="#A7DEA7" offset="0%"></stop>
            <stop stop-color="#F8FCF8" offset="37.735215%"></stop>
            <stop stop-color="#F8FCF8" offset="55.87039%"></stop>
            <stop stop-color="#A7DEA7" offset="100%"></stop>
        </linearGradient>
        <linearGradient x1="28.8085208%" y1="75.4355264%" x2="70.0012239%" y2="20.4436023%" id="linearGradient-5">
            <stop stop-color="#0084D0" offset="0%"></stop>
            <stop stop-color="#57D2F5" offset="56.350631%"></stop>
            <stop stop-color="#0084D0" offset="100%"></stop>
        </linearGradient>
    </defs>
    <g id="logo_mark" stroke="none" stroke-width="1" fill="none" fill-rule="evenodd">
        <g id="compass" transform="translate(0, 0)" fill-rule="nonzero">
            <path d="M175.157232,74.5871456 C175.157232,114.944062 136.419404,147.659803 88.6338784,147.659803 C40.8483555,147.659803 2.11053144,114.944062 2.11053144,74.5871456 C2.11053144,34.2302126 40.8483555,1.51447175 88.6338784,1.51447175 C136.419404,1.51447175 175.157232,34.2302126 175.157232,74.5871456 Z" id="path3351" fill="url(#linearGradient-1)"></path>
            <path d="M150.329414,69.968036 C150.329414,98.9865149 122.798428,122.510637 88.83724,122.510637 C54.8760542,122.510637 27.3450706,98.9865149 27.3450706,69.968036 C27.3450706,40.9495452 54.8760542,17.4254231 88.83724,17.4254231 C122.798428,17.4254231 150.329414,40.9495452 150.329414,69.968036 Z" id="path3351-8" fill="url(#linearGradient-2)" transform="translate(88.8372, 69.968) rotate(-0.0146) translate(-88.8372, -69.968)"></path>
            <path d="M88.677209,0 C40.378859,0 0.115578954,32.69449 0.115578954,73.81279 C0.103278954,79.80373 -0.138211046,84.46791 0.115578954,89.81279 C2.06580895,130.88481 40.378859,164.0625 88.677209,164.0625 C136.975569,164.0625 175.110949,131.16457 178.239709,90.21875 L178.270909,90.12505 L178.489369,85.44367 L178.270909,74.0313 L178.270909,73.9376 L178.239709,73.8751 C175.456629,32.9012 136.975569,0 88.677209,0 L88.677209,0 Z M88.677209,2.5 C135.843899,2.5 174.083459,34.52623 174.083459,74.03125 C174.083459,113.53627 135.843899,145.5625 88.677209,145.5625 C41.510519,145.5625 3.27095895,113.53627 3.27095895,74.03125 C3.27095895,34.52623 41.510519,2.5 88.677209,2.5 Z M88.770909,16.3125 C75.864379,16.3125 63.870209,19.60748 53.833409,25.28125 C55.180669,26.09067 56.646349,26.97042 58.208409,27.9375 C67.141769,23.51117 77.587079,20.9375 88.770909,20.9375 C105.507639,20.9375 120.693569,26.68803 131.520909,35.8125 C142.348259,44.93697 148.802159,57.28191 148.802159,70.6875 C148.802159,71.49395 148.785959,72.29545 148.739659,73.09375 C149.973449,73.29405 151.121499,73.47844 152.145909,73.6875 C152.208509,72.6926 152.239609,71.69765 152.239609,70.6875 C152.239609,55.3694 144.936249,41.63653 133.427109,31.9375 C121.917979,22.23848 106.118459,16.3125 88.770859,16.3125 L88.770909,16.3125 Z M40.645909,35.21875 C31.218089,44.62288 25.395909,57.02029 25.395909,70.6875 C25.395909,86.0056 32.699269,99.64473 44.208409,109.34375 C55.717539,119.04278 71.423309,124.9375 88.770909,124.9375 C106.118509,124.9375 121.918029,119.04278 133.427159,109.34375 C136.143549,107.05458 138.595069,104.54216 140.802159,101.84375 C139.656289,101.32661 138.457559,100.72425 137.239659,100 C135.507109,101.95976 133.586129,103.82209 131.520909,105.5625 C120.693569,114.68697 105.507639,120.3125 88.770909,120.3125 C72.034179,120.3125 56.942009,114.68697 46.114659,105.5625 C35.287359,96.43803 28.833409,84.09308 28.833409,70.6875 C28.833409,58.0562 34.582749,46.3787 44.302159,37.4375 C42.965719,36.64351 41.871899,35.95477 40.645909,35.21875 Z M149.739659,84 C148.659859,83.9519 147.552469,84.13254 146.395909,84.53125 C145.513779,87.04569 144.419779,89.46743 143.083409,91.8125 L144.927159,93.9375 C145.184299,94.23432 145.448989,94.51705 145.708409,94.8125 C147.665989,91.42277 149.227909,87.83369 150.333409,84.0625 C150.138089,84.0387 149.936169,84.0088 149.739659,84 Z" id="path4119" fill="#004926"></path>
        </g>
        <path d="M82.37902,68.33349 L72.29778,81.25009 L85.84445,69.90868 L82.37902,68.33349 Z M109.47237,41.87022 L99.39112,50.06123 L102.85655,51.95146 L109.47237,41.87022 Z M111.67764,60.77255 L142.55145,54.15674 L104.74678,54.47177 L107.2671,58.25224 L111.67764,60.77255 Z M90.57003,71.16884 L101.28136,112.1239 L100.33624,74.94931 L90.57003,71.16884 Z M34.4931,65.81318 L71.98274,58.88232 L81.74894,66.12822 L34.4931,65.81318 Z M88.04972,21.70772 L95.92569,47.85596 L92.03344,47.62596 L87.41964,45.02061 L88.04972,21.70772 Z" id="rose" fill="#AEC2B1" fill-rule="nonzero"></path>
        <g id="wrench" transform="translate(26.0797, 16.1543)" fill-rule="nonzero">
            <polygon id="path4243" fill="url(#linearGradient-3)" points="1.75894871 12.9842741 29.3138087 30.9441441 50.9640587 42.2613141 54.1623887 37.5868341 59.8209787 32.6663241 63.5113687 31.1901641 57.1146987 26.5156841 17.5045787 2.15914411 12.0920187 0.436964108 7.66355871 4.12735411 3.23509871 8.30978411"></polygon>
            <path d="M78.924021,42.2659034 C78.924021,48.6435909 73.0167837,53.8137275 65.7298347,53.8137275 C58.4428878,53.8137275 52.5356497,48.6435909 52.5356497,42.2659034 C52.5356497,35.8882133 58.4428878,30.7180767 65.7298347,30.7180767 C73.0167837,30.7180767 78.924021,35.8882133 78.924021,42.2659034 Z" id="path3351-8-0" fill="url(#linearGradient-4)" transform="translate(65.7298, 42.2659) rotate(-0.0133) translate(-65.7298, -42.2659)"></path>
            <path d="M79.6773087,40.8572141 L87.0285987,46.2036041 L93.2660487,50.2133941 L104.404359,53.3321141 L126.903739,56.6736141 L133.363959,59.1240441 L135.591619,63.1338341 L136.928219,74.2721441 L136.705459,78.9502241 L127.126509,72.2672441 C127.126509,72.2672441 120.666289,69.5940541 119.775229,70.4851141 C118.884159,71.3761741 118.215859,72.7127741 118.215859,72.7127741 L120.443519,77.3908641 L126.458209,84.5193841 L128.240339,89.8657741 L117.770329,89.4202441 L105.072659,83.4055541 L99.2807387,83.6283141 L95.2709487,80.0640641 C95.2709487,80.0640641 86.1375287,61.7972341 85.0236987,61.5744641 C83.9098687,61.3517041 70.9894287,53.5548841 70.9894287,53.5548841 L74.1081587,50.2133941 L79.0090187,44.1987041 L79.6773087,40.8572141 Z" id="path4288" fill="url(#linearGradient-5)"></path>
            <path d="M10.4582887,10.9053941 C9.35410871,9.11880411 12.0713487,6.76755411 14.8649287,7.09228411 C18.8821487,7.55926411 18.4190087,11.2988341 14.2943787,11.6992041 C12.5584887,11.8677041 10.8322487,11.5104841 10.4582887,10.9053941 L10.4582887,10.9053941 Z" id="path3226-1" fill="#014825"></path>
            <path d="M0.357098707,9.10529411 C-1.05889129,12.8277141 1.92974871,18.8686541 5.90999871,21.7519441 L9.75374871,24.5331941 L12.8210487,26.6431541 C15.8587087,26.6501541 21.3686487,30.6496841 32.1912487,36.7831941 C42.4926187,42.6213141 52.2460687,48.8678941 53.8787487,50.6581941 C56.9405187,54.0155341 60.6092987,55.9081941 64.0662487,55.9081941 C66.0666887,55.9081941 80.8718187,63.8798841 84.3162487,66.8144441 C85.3401987,67.6868141 88.1203987,72.2331941 90.4724987,76.9081941 C92.8245987,81.5831841 95.6807087,86.2618641 96.8474987,87.3144441 C98.7149487,88.9990941 99.2938287,89.0596541 101.503749,87.8769441 C103.286639,86.9227741 104.306489,86.8359341 105.066249,87.5956941 L112.941249,92.5331941 C117.274529,94.6949241 124.137449,95.4043541 126.816249,93.9706941 C128.436409,93.1036141 128.944299,91.8996941 128.909999,89.0956941 C128.873199,86.0817341 128.031819,84.5537941 124.472499,80.9394441 C119.743189,76.1370241 119.600199,74.9081941 123.722499,74.9081941 C125.603439,74.9081941 127.731339,76.3519941 131.128749,79.9706941 C133.971699,82.9988141 136.374939,84.7729441 137.066249,84.3456941 C137.871499,83.8480241 138.079799,80.6481041 137.753749,73.8769441 C137.196199,62.2982641 135.288229,58.0111841 129.909999,56.2519441 C123.607859,54.7589441 123.412009,54.7619941 120.847499,54.7831941 C117.001949,54.6236141 102.815329,52.2472541 98.4724987,51.0331941 C92.9314687,49.4841441 79.3492087,41.1677841 77.8474987,36.9394441 C76.5530387,33.2946341 70.7883487,30.9081941 67.3162487,30.9081941 C65.6350987,30.9081941 49.5240887,20.9082341 42.0662487,16.0331941 C34.6084087,11.1581541 35.8360287,11.8739541 33.9544787,10.4640841 C32.0729187,9.05421411 30.8787087,7.90819411 30.5662487,7.90819411 C30.2537887,7.90819411 27.1390087,6.35061411 24.3474987,4.47069411 C21.5559887,2.59077411 17.9798987,0.914534108 16.3787487,0.720694108 C8.96934871,-1.88884589 3.13320871,2.97447411 0.357098707,9.10529411 Z M15.1287487,2.68944411 C17.1212787,2.74614411 25.0745287,7.21014411 39.5349987,16.4394441 C51.3253187,23.9645241 60.9724987,30.4482541 60.9724987,30.8456941 C60.9724987,31.2431141 59.4345087,31.9240041 58.0974987,32.5331941 C56.7604787,33.1423741 54.7764087,34.6041041 53.5349987,36.2831941 C52.2935887,37.9623041 51.3440687,39.8663941 51.0349987,39.8458614 C49.3694287,39.7342841 3.90239871,13.1776341 3.47249871,12.0644441 C2.15773871,8.65999411 9.77810871,2.53729411 15.1287487,2.68944411 Z M66.2537487,32.5955772 C69.4692187,32.5828941 72.6851087,33.6207841 75.0037487,35.9394441 C79.0261987,39.9618941 78.3273187,46.3101641 73.5037487,49.4706941 C70.8144087,51.2327841 63.5253587,52.2706741 60.9724987,51.2519441 C57.2824687,49.7794041 53.9724987,45.4730041 53.9724987,42.1581941 C53.9724987,36.4213841 60.1151187,32.6200541 66.2537487,32.5955772 Z M79.8162487,42.6269441 L88.2849987,47.8456941 C96.6131087,53.0064441 99.6695087,53.8513041 118.878749,56.3769441 C126.018129,57.3156141 130.954509,58.4928541 132.034999,59.4706941 C133.999279,61.2483341 135.972499,68.1327841 135.972499,73.2206941 L135.972499,76.6269441 L131.597499,72.2519441 C126.541919,67.1963641 122.625229,66.5883541 117.128749,69.9394441 L113.816249,71.9706941 L118.847499,77.7831941 C121.623769,80.9878841 124.642719,84.2301641 125.534999,84.9706941 C127.020169,86.2032741 127.007049,86.3678341 125.316249,87.0331941 C121.263669,88.6279641 115.056869,86.7511041 108.097499,81.8456941 C104.181049,79.0851141 103.384969,78.8802741 101.347499,79.9706941 C98.0843487,81.7170741 96.8856487,80.4597441 91.5349987,69.5331941 C87.0968187,60.4699741 86.9246887,60.2400241 79.9724987,56.3456941 C73.1990487,52.5514741 72.9797987,52.3452441 74.8474987,50.8144441 C75.9189487,49.9362441 77.4752087,48.8182541 78.5037487,47.1269441 L79.8162487,42.6269441 Z" id="path3276-5-1" fill="#004926"></path>
        </g>
    </g>
</svg>