<?xml version="1.0" encoding="UTF-8"?>
<svg width="48px" height="48px" viewBox="0 0 48 48" version="1.1" xmlns="http://www.w3.org/2000/svg" xmlns:xlink="http://www.w3.org/1999/xlink">
    <title>mark</title>
    <defs>
        <linearGradient x1="8.05369259%" y1="18.7495417%" x2="106.711401%" y2="79.7901629%" id="linearGradient-1">
            <stop stop-color="#89D48B" offset="0%"></stop>
            <stop stop-color="#CBE9B2" offset="50%"></stop>
            <stop stop-color="#89D48B" offset="100%"></stop>
        </linearGradient>
        <linearGradient x1="0.938965088%" y1="20.3145286%" x2="90.1408425%" y2="80.8889339%" id="linearGradient-2">
            <stop stop-color="#A7DEA7" offset="0%"></stop>
            <stop stop-color="#F8FCF8" offset="46.206793%"></stop>
            <stop stop-color="#F8FCF8" offset="60.57682%"></stop>
            <stop stop-color="#A7DEA7" offset="100%"></stop>
        </linearGradient>
        <linearGradient x1="36.6508454%" y1="63.4491209%" x2="65.7721349%" y2="33.6179756%" id="linearGradient-3">
            <stop stop-color="#A5A7AA" offset="0%"></stop>
            <stop stop-color="#E0E1E2" offset="55.87039%"></stop>
            <stop stop-color="#A5A7AA" offset="100%"></stop>
        </linearGradient>
        <linearGradient x1="2.71478208%" y1="46.2115985%" x2="107.737476%" y2="45.1348765%" id="linearGradient-4">
            <stop stop-color="#A7DEA7" offset="0%"></stop>
            <stop stop-color="#F8FCF8" offset="37.735215%"></stop>
            <stop stop-color="#F8FCF8" offset="55.87039%"></stop>
            <stop stop-color="#A7DEA7" offset="100%"></stop>
        </linearGradient>
        <linearGradient x1="28.8085208%" y1="74.0170956%" x2="70.0012239%" y2="22.0918365%" id="linearGradient-5">
            <stop stop-color="#0084D0" offset="0%"></stop>
            <stop stop-color="#57D2F5" offset="56.350631%"></stop>
            <stop stop-color="#0084D0" offset="100%"></stop>
        </linearGradient>
    </defs>
    <g id="mark" stroke="none" stroke-width="1" fill="none" fill-rule="evenodd">
        <rect fill="#FFFFFF" x="0" y="0" width="48" height="48"></rect>
        <g id="compass" transform="translate(0, 2)" fill-rule="nonzero">
            <path d="M47,20 C47,31.0456966 36.4786906,40 23.5,40 C10.5213086,40 0,31.0456966 0,20 C0,8.95430337 10.5213086,0 23.5,0 C36.4786906,0 47,8.95430337 47,20 Z" id="path3351" fill="url(#linearGradient-1)"></path>
            <path d="M40.3169181,18.7647609 C40.3169181,26.5472406 32.93337,32.8561861 23.8253027,32.8561861 C14.7172361,32.8561861 7.33368855,26.5472406 7.33368855,18.7647609 C7.33368855,10.982278 14.7172361,4.67333252 23.8253027,4.67333252 C32.93337,4.67333252 40.3169181,10.982278 40.3169181,18.7647609 Z" id="path3351-8" fill="url(#linearGradient-2)" transform="translate(23.8253, 18.7648) rotate(-0.0146) translate(-23.8253, -18.7648)"></path>
        </g>
        <polygon id="path4243" fill="url(#linearGradient-3)" fill-rule="nonzero" points="7 10.3000013 14.5856561 15.0235313 20.5458152 18 21.4262926 16.7705899 22.984062 15.4764727 24 15.0882357 22.2390425 13.8588255 11.3346594 7.45294141 9.84462034 7 8.62549694 7.97058986 7.40637355 9.07058854"></polygon>
        <path d="M28.1610017,17.6677438 C28.1610017,19.3781788 26.576737,20.7647602 24.6224466,20.7647602 C22.6681569,20.7647602 21.0838919,19.3781788 21.0838919,17.6677438 C21.0838919,15.957308 22.6681569,14.5707266 24.6224466,14.5707266 C26.576737,14.5707266 28.1610017,15.957308 28.1610017,17.6677438 Z" id="path3351-8-0" fill="url(#linearGradient-4)" fill-rule="nonzero" transform="translate(24.6224, 17.6677) rotate(-0.0133) translate(-24.6224, -17.6677)"></path>
        <path d="M28.3716213,17 L30.3783797,18.4181823 L32.0810816,19.4818183 L35.1216223,20.3090893 L41.263513,21.1954548 L43.0270267,21.8454554 L43.6351343,22.9090914 L44,25.8636371 L43.9391909,27.1045436 L41.3243249,25.3318177 C41.3243249,25.3318177 39.5608112,24.6227279 39.3175692,24.8590903 C39.0743245,25.0954527 38.8918917,25.4499989 38.8918917,25.4499989 L39.5,26.6909081 L41.141892,28.5818177 L41.6283787,30 L38.7702707,29.8818188 L35.3040552,28.2863634 L33.7229743,28.3454527 L32.62838,27.4000005 C32.62838,27.4000005 30.135135,22.5545452 29.8310812,22.4954532 C29.5270274,22.436364 26,20.3681812 26,20.3681812 L26.8513523,19.4818183 L28.1891912,17.8863629 L28.3716213,17 Z" id="path4288" fill="url(#linearGradient-5)" fill-rule="nonzero"></path>
        <path d="M21.851313,20.3763079 L19.1457751,23.8048801 L22.7813427,20.7944251 L21.851313,20.3763079 Z M29.1224508,13.3519182 L26.4169102,15.5261335 L27.3469399,16.0278747 L29.1224508,13.3519182 Z M29.7142869,18.3693379 L38,16.6132425 L27.8542276,16.6968638 L28.5306147,17.7003488 L29.7142869,18.3693379 Z M24.0495632,21.128921 L26.9242006,32 L26.6705554,22.1324059 L24.0495632,21.128921 Z M9,19.7073188 L19.0612267,17.8675967 L21.6822162,19.7909427 L9,19.7073188 Z M23.3731788,8 L25.4868806,14.9407683 L24.4423037,14.8797173 L23.204082,14.1881553 L23.3731788,8 Z" id="rose" fill="#AEC2B1" fill-rule="nonzero"></path>
        <g id="g4897" transform="translate(0, 2)" fill-rule="nonzero">
            <path d="M23.8473925,0 C10.8588273,0 0.0310819061,8.76835084 0.0310819061,19.7958873 C0.0277741461,21.4026004 -0.0371682091,22.653489 0.0310819061,24.0869349 C0.555544739,35.1020595 10.8588273,44 23.8473925,44 C36.8359603,44 47.0914632,35.1770885 47.9328605,24.1958095 L47.941251,24.1706801 L48,22.9151785 L47.941251,19.8544896 L47.941251,19.8293602 L47.9328605,19.8125982 C47.1844247,8.8237885 36.8359603,0 23.8473925,0 L23.8473925,0 Z M23.8473925,0.67047619 C36.5316276,0.67047619 46.8151469,9.25960606 46.8151469,19.8544762 C46.8151469,30.4493463 36.5316276,39.0384762 23.8473925,39.0384762 C11.1631573,39.0384762 0.87963799,30.4493463 0.87963799,19.8544762 C0.87963799,9.25960606 11.1631573,0.67047619 23.8473925,0.67047619 Z M23.8725906,4.37485714 C20.4017203,4.37485714 17.1762052,5.2585394 14.477073,6.78019048 C14.839383,6.99726921 15.2335389,7.23320978 15.6536137,7.49257143 C18.0560048,6.30547188 20.864995,5.6152381 23.8725906,5.6152381 C28.3734919,5.6152381 32.4573466,7.15747547 35.3690736,9.60457143 C38.2808033,12.0516674 40.0164092,15.3624627 40.0164092,18.9577143 C40.0164092,19.1739965 40.0120527,19.3889512 39.9996015,19.6030476 C40.3313967,19.6567662 40.6401344,19.7062178 40.9156224,19.7622857 C40.9324571,19.495463 40.9408206,19.2286269 40.9408206,18.9577143 C40.9408206,14.8495458 38.9767749,11.1665208 35.8816957,8.56533333 C32.7866193,5.96414854 28.5377558,4.37485714 23.8725771,4.37485714 L23.8725906,4.37485714 Z M10.9306433,9.44533333 C8.39528023,11.9674314 6.82955874,15.2922987 6.82955874,18.9577143 C6.82955874,23.0658828 8.79360445,26.7237676 11.8886836,29.3249524 C14.98376,31.9261399 19.2074119,33.5070476 23.8725906,33.5070476 C28.5377693,33.5070476 32.7866328,31.9261399 35.8817092,29.3249524 C36.6122105,28.7110188 37.271482,28.0372117 37.8650206,27.3135238 C37.5568691,27.1748318 37.2345024,27.0132846 36.9069803,26.8190476 C36.4410568,27.3446366 35.92446,27.8440958 35.3690736,28.3108571 C32.4573466,30.7579531 28.3734919,32.2666667 23.8725906,32.2666667 C19.3716892,32.2666667 15.3130489,30.7579531 12.4013192,28.3108571 C9.48960288,25.8637612 7.75398354,22.5529632 7.75398354,18.9577143 C7.75398354,15.5701199 9.30011664,12.4383256 11.9138952,10.040381 C11.5544949,9.8274404 11.2603409,9.64272689 10.9306433,9.44533333 Z M40.2685251,22.528 C39.9781414,22.5151 39.6803381,22.563546 39.3693119,22.6704762 C39.1320863,23.3448251 38.8378839,23.9943127 38.4785025,24.6232381 L38.9743304,25.1931429 C39.0434814,25.2727472 39.1146627,25.3485726 39.1844269,25.4278095 C39.7108663,24.5187162 40.1309034,23.5561591 40.4281985,22.5447619 C40.3756723,22.538379 40.3213713,22.5303601 40.2685251,22.528 Z" id="path4119" fill="#004926"></path>
            <path d="M9.82592947,7.25715383 C9.52898943,6.77800741 10.2597193,6.14742455 11.0109789,6.23451404 C12.0913041,6.35975363 11.9667548,7.36267069 10.8575445,7.47004611 C10.3907228,7.51523621 9.92649613,7.4194332 9.82592947,7.25715383 L9.82592947,7.25715383 Z" id="path3226-1" fill="#014825"></path>
            <path d="M7.10948129,6.77438415 C6.72868819,7.77270174 7.53240396,9.39282432 8.60278704,10.1660952 L9.63646205,10.912 L10.4613313,11.4778712 C11.2782297,11.4797485 12.7599825,12.5523844 15.6704349,14.1973333 C18.4407162,15.7630615 21.0636488,17.4383348 21.502715,17.9184762 C22.3260971,18.8188828 23.3127186,19.3264762 24.242374,19.3264762 C24.7803394,19.3264762 28.761788,21.4644075 29.6880764,22.2514286 C29.9634407,22.4853899 30.7111021,23.7046857 31.3436372,24.9584762 C31.9761724,26.212264 32.7442477,27.4670414 33.058025,27.7493333 C33.5602264,28.2011404 33.7159009,28.217382 34.3102005,27.9001905 C34.7896616,27.6442912 35.0639233,27.6210015 35.2682407,27.8247619 L37.3860139,29.1489524 C38.5513351,29.7287078 40.3969361,29.9189701 41.1173286,29.5344762 C41.5530278,29.3019336 41.6896114,28.9790537 41.6803873,28.2270476 C41.6704909,27.4187323 41.444224,27.0089533 40.4870389,26.039619 C39.215216,24.7516557 39.1767626,24.4220952 40.2853462,24.4220952 C40.7911754,24.4220952 41.3634178,24.8093086 42.2770615,25.7798095 C43.0415978,26.5919225 43.6878857,27.0677272 43.8737953,26.9531429 C44.090346,26.8196725 44.1463628,25.9614844 44.0586802,24.1455238 C43.9087419,21.0402321 43.3956438,19.8904781 41.9493109,19.4186667 C40.2545168,19.0182583 40.2018482,19.0190763 39.512191,19.0247619 C38.4780319,18.9819641 34.6629153,18.3446469 33.4950259,18.0190476 C32.0049122,17.6036072 28.3523223,15.3732386 27.948477,14.2392381 C27.6003662,13.2617348 26.0501052,12.6217143 25.1163756,12.6217143 C24.6642747,12.6217143 20.3316442,9.93982025 18.3260552,8.63238095 C16.3204662,7.32494165 16.6506021,7.5169124 16.144609,7.13879869 C15.6386131,6.76068498 15.3174619,6.45333333 15.233434,6.45333333 C15.1494062,6.45333333 14.3117684,6.03560521 13.5610655,5.53142857 C12.8103627,5.02725193 11.8486678,4.57770033 11.4180808,4.52571429 C9.42551839,3.82586051 7.85604273,5.13015662 7.10948129,6.77438415 Z M11.0819263,5.05371429 C11.6177646,5.06892069 13.756581,6.26612297 17.6453424,8.74133333 C20.8160375,10.7594881 23.4103916,12.4983628 23.4103916,12.6049524 C23.4103916,12.7115366 22.9967899,12.8941449 22.6372363,13.0575238 C22.2776801,13.2209001 21.7441169,13.6129221 21.4102725,14.0632381 C21.0764281,14.5135594 20.8210798,15.0242182 20.7379636,15.0187115 C20.2900525,14.9887876 8.06289606,7.86654696 7.94728581,7.568 C7.59371585,6.65495893 9.64301303,5.0129091 11.0819263,5.05371429 Z M24.8306443,13.0742544 C25.69536,13.0708529 26.5601886,13.3492051 27.1837256,13.9710476 C28.2654573,15.0498304 28.077512,16.752376 26.7803402,17.6 C26.0571133,18.0725758 24.0969159,18.350928 23.4103916,18.0777143 C22.4180556,17.6827931 21.5279266,16.5278576 21.5279266,15.6388571 C21.5279266,14.1002993 23.1798219,13.0808188 24.8306443,13.0742544 Z M28.4779203,15.7645714 L30.7553669,17.1641905 C32.9949921,18.5482545 33.8169301,18.7748379 38.9827477,19.4521905 C40.9026953,19.7039328 42.2302043,20.0196574 42.5207735,20.2819048 C43.0490147,20.7586509 43.5796601,22.6049948 43.5796601,23.9695238 L43.5796601,24.8830476 L42.4031194,23.7097143 C41.0435548,22.3538559 39.9902645,22.1907934 38.5121314,23.0895238 L37.621322,23.6342857 L38.9743438,25.1931429 C39.7209483,26.0526102 40.5328151,26.9221588 40.7727702,27.1207619 C41.1721675,27.4513281 41.1686392,27.4954615 40.7139432,27.6739048 C39.6241089,28.1016069 37.954954,27.5982509 36.0834153,26.2826667 C35.0301896,25.5423054 34.8161049,25.4873693 34.2681812,25.7798095 C33.3906432,26.248172 33.0682845,25.9109681 31.6293685,22.9805714 C30.4358373,20.5499021 30.3895475,20.4882317 28.5199396,19.4438095 C26.6983992,18.4262359 26.6394377,18.3709269 27.1417063,17.960381 C27.4298445,17.7248561 27.8483595,17.4250218 28.1249581,16.9714286 L28.4779203,15.7645714 Z" id="path3276-5-1" fill="#004926"></path>
        </g>
    </g>
</svg>