<?xml version="1.0" encoding="UTF-8"?>
<svg width="648px" height="164px" viewBox="0 0 648 164" version="1.1" xmlns="http://www.w3.org/2000/svg" xmlns:xlink="http://www.w3.org/1999/xlink">
    <title>geotools_logo</title>
    <defs>
        <linearGradient x1="8.05369259%" y1="19.2266077%" x2="106.711401%" y2="79.3353896%" id="linearGradient-1">
            <stop stop-color="#89D48B" offset="0%"></stop>
            <stop stop-color="#CBE9B2" offset="50%"></stop>
            <stop stop-color="#89D48B" offset="100%"></stop>
        </linearGradient>
        <linearGradient x1="0.938965088%" y1="20.3145286%" x2="90.1408425%" y2="80.8889339%" id="linearGradient-2">
            <stop stop-color="#A7DEA7" offset="0%"></stop>
            <stop stop-color="#F8FCF8" offset="46.206793%"></stop>
            <stop stop-color="#F8FCF8" offset="60.57682%"></stop>
            <stop stop-color="#A7DEA7" offset="100%"></stop>
        </linearGradient>
        <linearGradient x1="36.6508454%" y1="64.7352262%" x2="65.7721349%" y2="32.0514041%" id="linearGradient-3">
            <stop stop-color="#A5A7AA" offset="0%"></stop>
            <stop stop-color="#E0E1E2" offset="55.87039%"></stop>
            <stop stop-color="#A5A7AA" offset="100%"></stop>
        </linearGradient>
        <linearGradient x1="2.71478208%" y1="46.2115985%" x2="107.737476%" y2="45.1348765%" id="linearGradient-4">
            <stop stop-color="#A7DEA7" offset="0%"></stop>
            <stop stop-color="#F8FCF8" offset="37.735215%"></stop>
            <stop stop-color="#F8FCF8" offset="55.87039%"></stop>
            <stop stop-color="#A7DEA7" offset="100%"></stop>
        </linearGradient>
        <linearGradient x1="28.8085208%" y1="75.4355264%" x2="70.0012239%" y2="20.4436023%" id="linearGradient-5">
            <stop stop-color="#0084D0" offset="0%"></stop>
            <stop stop-color="#57D2F5" offset="56.350631%"></stop>
            <stop stop-color="#0084D0" offset="100%"></stop>
        </linearGradient>
    </defs>
    <g id="geotools_logo" stroke="none" stroke-width="1" fill="none" fill-rule="evenodd">
        <g id="geotools-logo" transform="translate(0, 0)" fill-rule="nonzero">
            <path d="M538.601419,61.60018 C522.456229,61.60018 509.351419,73.84019 509.351419,88.97518 C509.351419,104.11017 522.456229,116.38143 538.601419,116.38143 C554.746609,116.38143 567.820169,104.11017 567.820169,88.97518 C567.820169,73.84019 554.746609,61.60018 538.601419,61.60018 Z M538.663919,79.53768 C543.661449,79.53768 547.695169,83.92396 547.695169,89.35018 C547.695169,94.7764 543.661449,99.19393 538.663919,99.19393 C533.666389,99.19393 529.601419,94.7764 529.601419,89.35018 C529.601419,83.92396 533.666389,79.53768 538.663919,79.53768 Z" id="path3041-4-0" fill="#007ECC"></path>
            <path d="M476.601419,61.60018 C460.456229,61.60018 447.351419,73.84019 447.351419,88.97518 C447.351419,104.11017 460.456229,116.38143 476.601419,116.38143 C492.746609,116.38143 505.820169,104.11017 505.820169,88.97518 C505.820169,73.84019 492.746609,61.60018 476.601419,61.60018 Z M476.663919,79.53768 C481.661449,79.53768 485.695169,83.92396 485.695169,89.35018 C485.695169,94.7764 481.661449,99.19393 476.663919,99.19393 C471.666389,99.19393 467.601419,94.7764 467.601419,89.35018 C467.601419,83.92396 471.666389,79.53768 476.663919,79.53768 Z" id="path3041-4" fill="#007ECC"></path>
            <path d="M356.937499,60.96875 C340.792309,60.96875 327.687499,73.208757 327.687499,88.34375 C327.687499,103.47874 340.792309,115.75 356.937499,115.75 C373.082689,115.75 386.156249,103.47874 386.156249,88.34375 C386.156249,73.208757 373.082689,60.96875 356.937499,60.96875 Z M356.999999,78.90625 C361.997529,78.90625 366.031249,83.29253 366.031249,88.71875 C366.031249,94.14497 361.997529,98.5625 356.999999,98.5625 C352.002469,98.5625 347.937499,94.14497 347.937499,88.71875 C347.937499,83.29253 352.002469,78.90625 356.999999,78.90625 Z" id="path3041" fill="#004926"></path>
            <path d="M175.157232,74.5871456 C175.157232,114.944062 136.419404,147.659803 88.6338784,147.659803 C40.8483555,147.659803 2.11053144,114.944062 2.11053144,74.5871456 C2.11053144,34.2302126 40.8483555,1.51447175 88.6338784,1.51447175 C136.419404,1.51447175 175.157232,34.2302126 175.157232,74.5871456 Z" id="path3351" fill="url(#linearGradient-1)"></path>
            <path d="M150.329414,69.968036 C150.329414,98.9865149 122.798428,122.510637 88.83724,122.510637 C54.8760542,122.510637 27.3450706,98.9865149 27.3450706,69.968036 C27.3450706,40.9495452 54.8760542,17.4254231 88.83724,17.4254231 C122.798428,17.4254231 150.329414,40.9495452 150.329414,69.968036 Z" id="path3351-8" fill="url(#linearGradient-2)" transform="translate(88.8372, 69.968) rotate(-0.0146) translate(-88.8372, -69.968)"></path>
            <polygon id="path4243" fill="url(#linearGradient-3)" points="27.838659 29.13858 55.393519 47.09845 77.043769 58.41562 80.242099 53.74114 85.900689 48.82063 89.591079 47.34447 83.194409 42.66999 43.584289 18.31345 38.171729 16.59127 33.743269 20.28166 29.314809 24.46409"></polygon>
            <path d="M105.003731,58.4202093 C105.003731,64.7978968 99.096494,69.9680334 91.8095449,69.9680334 C84.5225981,69.9680334 78.6153599,64.7978968 78.6153599,58.4202093 C78.6153599,52.0425192 84.5225981,46.8723826 91.8095449,46.8723826 C99.096494,46.8723826 105.003731,52.0425192 105.003731,58.4202093 Z" id="path3351-8-0" fill="url(#linearGradient-4)" transform="translate(91.8095, 58.4202) rotate(-0.0133) translate(-91.8095, -58.4202)"></path>
            <path d="M612.280909,114.50201 C606.264309,112.88188 598.748449,109.27696 599.214809,108.23497 L606.298009,97.54959 C616.194499,101.654 627.065329,103.41743 628.460209,101.16046 C629.376879,99.67726 626.921279,98.39839 617.933769,95.67828 C605.559039,91.93301 601.030239,87.61585 601.030239,79.56469 C601.030239,68.60047 609.529099,61.93562 623.580699,61.8805 C632.067489,61.8472 635.769939,62.51818 642.240989,65.26214 L646.951749,67.25967 L643.872479,73.40341 C642.178879,76.78247 640.691079,79.66511 640.566259,79.80928 C640.441439,79.95345 638.357269,79.19558 635.934779,78.12513 C630.177439,75.58108 621.547069,74.40189 620.545509,76.02245 C619.385769,77.89894 621.086529,78.91377 629.091699,81.12192 C642.878509,84.92488 648.030239,89.63851 648.030239,98.44993 C648.030239,109.7056 639.256149,116.1332 624.098739,115.98134 C620.486059,115.94514 615.168039,115.27944 612.280909,114.50201 L612.280909,114.50201 Z" id="path3313" fill="#007ECC"></path>
            <polygon id="path3311" fill="#007ECC" points="409.798019 90.79715 409.530239 66.54715 399.780239 66.26094 390.030239 65.97473 390.030239 57.01094 390.030239 48.04715 420.530239 48.04715 451.030239 48.04715 451.030239 57.04715 451.030239 66.04715 441.530239 66.04715 432.030239 66.04715 432.030239 90.54715 432.030239 115.04715 421.048019 115.04715 410.065799 115.04715"></polygon>
            <polygon id="path3028" fill="#007ECC" points="574.030239 80.04715 574.030239 45.04715 584.530239 45.04715 595.030239 45.04715 595.030239 80.04715 595.030239 115.04715 584.530239 115.04715 574.030239 115.04715"></polygon>
            <path d="M105.757019,57.01152 L113.108309,62.35791 L119.345759,66.3677 L130.484069,69.48642 L152.983449,72.82792 L159.443669,75.27835 L161.671329,79.28814 L163.007929,90.42645 L162.785169,95.10453 L153.206219,88.42155 C153.206219,88.42155 146.745999,85.74836 145.854939,86.63942 C144.963869,87.53048 144.295569,88.86708 144.295569,88.86708 L146.523229,93.54517 L152.537919,100.67369 L154.320049,106.02008 L143.850039,105.57455 L131.152369,99.55986 L125.360449,99.78262 L121.350659,96.21837 C121.350659,96.21837 112.217239,77.95154 111.103409,77.72877 C109.989579,77.50601 97.069139,69.70919 97.069139,69.70919 L100.187869,66.3677 L105.088729,60.35301 L105.757019,57.01152 Z" id="path4288" fill="url(#linearGradient-5)"></path>
            <path d="M82.379019,68.33349 L72.297779,81.25009 L85.844449,69.90868 L82.379019,68.33349 Z M109.472369,41.87022 L99.391119,50.06123 L102.856549,51.95146 L109.472369,41.87022 Z M111.677639,60.77255 L142.551449,54.15674 L104.746779,54.47177 L107.267099,58.25224 L111.677639,60.77255 Z M90.570029,71.16884 L101.281359,112.1239 L100.336239,74.94931 L90.570029,71.16884 Z M34.493099,65.81318 L71.982739,58.88232 L81.748939,66.12822 L34.493099,65.81318 Z M88.049719,21.70772 L95.925689,47.85596 L92.033439,47.62596 L87.419639,45.02061 L88.049719,21.70772 Z" id="path4409-2" fill="#AEC2B1"></path>
            <path d="M220.211429,113.15038 C204.831039,107.45853 197.116829,94.05717 198.258129,78.106 C198.857529,69.72859 201.649399,63.43768 207.583119,57.09406 C214.440499,49.76296 221.327519,46.78183 232.635749,46.2497 C243.082629,45.75811 249.432199,47.22675 257.818399,52.07438 L263.106569,55.1312 L261.138899,57.83918 C260.056689,59.32856 257.227009,62.69898 254.850729,65.329 L250.530229,70.11086 L245.610749,67.579 C236.732379,63.00967 227.189009,64.81812 222.812659,71.89919 C219.762079,76.83513 219.675299,85.74624 222.638839,89.74614 C226.317109,94.7107 230.783749,97.04715 236.596339,97.04715 C243.930629,97.04715 245.030229,96.44649 245.030229,92.44016 L245.030229,89.04715 L239.030229,89.04715 L233.030229,89.04715 L233.030229,82.04715 L233.030229,75.04715 L249.055629,75.04715 L265.081029,75.04715 L264.805629,90.79715 L264.530229,106.54715 C264.530229,106.54715 259.271899,110.24436 256.580459,111.49148 C251.139859,114.01247 245.566159,115.55658 237.580459,115.60075 C230.438149,115.64025 224.422949,114.70894 220.211429,113.15038 Z" id="path3222" fill="#004926"></path>
            <path d="M296.291969,60.93444 C289.661599,61.09844 283.091279,63.29566 278.604469,67.65319 C272.392549,73.68613 270.555669,78.36446 270.541715,88.05944 C270.531269,95.63707 270.848449,97.12736 273.510719,101.93444 C276.600019,107.51258 281.328409,111.2945 287.886989,114.12575 C293.842919,116.69684 305.982469,115.938 311.124289,113.25456 C314.936439,111.26506 322.850569,104.39915 321.948219,103.74694 C321.713309,103.57716 319.178079,101.5142 316.291969,99.15319 L311.041969,94.87194 L307.948219,97.46569 C303.367479,100.74468 297.015459,100.43989 292.698219,97.75456 C290.564459,96.42736 289.541969,93.55944 289.541969,93.55944 L306.791969,93.27819 L324.041969,92.99694 L324.041969,88.71569 C324.041969,82.65225 321.569979,75.0785 317.979469,70.12194 C313.453249,63.87367 304.816729,60.72358 296.291969,60.93444 L296.291969,60.93444 Z M297.041969,76.16208 C299.719629,76.16208 304.041999,79.33667 304.041999,81.99694 L304.084199,83.52292 L297.041999,83.58082 L290.041999,83.58082 L290.041999,81.99694 C290.041999,79.33667 294.364319,76.16208 297.041979,76.16208 L297.041969,76.16208 Z" id="path3220" fill="#004926"></path>
            <g id="g4897">
                <path d="M88.677209,0 C40.378859,0 0.115578954,32.69449 0.115578954,73.81279 C0.103278954,79.80373 -0.138211046,84.46791 0.115578954,89.81279 C2.06580895,130.88481 40.378859,164.0625 88.677209,164.0625 C136.975569,164.0625 175.110949,131.16457 178.239709,90.21875 L178.270909,90.12505 L178.489369,85.44367 L178.270909,74.0313 L178.270909,73.9376 L178.239709,73.8751 C175.456629,32.9012 136.975569,0 88.677209,0 L88.677209,0 Z M88.677209,2.5 C135.843899,2.5 174.083459,34.52623 174.083459,74.03125 C174.083459,113.53627 135.843899,145.5625 88.677209,145.5625 C41.510519,145.5625 3.27095895,113.53627 3.27095895,74.03125 C3.27095895,34.52623 41.510519,2.5 88.677209,2.5 Z M88.770909,16.3125 C75.864379,16.3125 63.870209,19.60748 53.833409,25.28125 C55.180669,26.09067 56.646349,26.97042 58.208409,27.9375 C67.141769,23.51117 77.587079,20.9375 88.770909,20.9375 C105.507639,20.9375 120.693569,26.68803 131.520909,35.8125 C142.348259,44.93697 148.802159,57.28191 148.802159,70.6875 C148.802159,71.49395 148.785959,72.29545 148.739659,73.09375 C149.973449,73.29405 151.121499,73.47844 152.145909,73.6875 C152.208509,72.6926 152.239609,71.69765 152.239609,70.6875 C152.239609,55.3694 144.936249,41.63653 133.427109,31.9375 C121.917979,22.23848 106.118459,16.3125 88.770859,16.3125 L88.770909,16.3125 Z M40.645909,35.21875 C31.218089,44.62288 25.395909,57.02029 25.395909,70.6875 C25.395909,86.0056 32.699269,99.64473 44.208409,109.34375 C55.717539,119.04278 71.423309,124.9375 88.770909,124.9375 C106.118509,124.9375 121.918029,119.04278 133.427159,109.34375 C136.143549,107.05458 138.595069,104.54216 140.802159,101.84375 C139.656289,101.32661 138.457559,100.72425 137.239659,100 C135.507109,101.95976 133.586129,103.82209 131.520909,105.5625 C120.693569,114.68697 105.507639,120.3125 88.770909,120.3125 C72.034179,120.3125 56.942009,114.68697 46.114659,105.5625 C35.287359,96.43803 28.833409,84.09308 28.833409,70.6875 C28.833409,58.0562 34.582749,46.3787 44.302159,37.4375 C42.965719,36.64351 41.871899,35.95477 40.645909,35.21875 Z M149.739659,84 C148.659859,83.9519 147.552469,84.13254 146.395909,84.53125 C145.513779,87.04569 144.419779,89.46743 143.083409,91.8125 L144.927159,93.9375 C145.184299,94.23432 145.448989,94.51705 145.708409,94.8125 C147.665989,91.42277 149.227909,87.83369 150.333409,84.0625 C150.138089,84.0387 149.936169,84.0088 149.739659,84 Z" id="path4119" fill="#004926"></path>
                <path d="M36.537999,27.0597 C35.433819,25.27311 38.151059,22.92186 40.944639,23.24659 C44.961859,23.71357 44.498719,27.45314 40.374089,27.85351 C38.638199,28.02201 36.911959,27.66479 36.537999,27.0597 L36.537999,27.0597 Z" id="path3226-1" fill="#014825"></path>
                <path d="M26.436809,25.2596 C25.020819,28.98202 28.009459,35.02296 31.989709,37.90625 L35.833459,40.6875 L38.900759,42.79746 C41.938419,42.80446 47.448359,46.80399 58.270959,52.9375 C68.572329,58.77562 78.325779,65.0222 79.958459,66.8125 C83.020229,70.16984 86.689009,72.0625 90.145959,72.0625 C92.146399,72.0625 106.951529,80.03419 110.395959,82.96875 C111.419909,83.84112 114.200109,88.3875 116.552209,93.0625 C118.904309,97.73749 121.760419,102.41617 122.927209,103.46875 C124.794659,105.1534 125.373539,105.21396 127.583459,104.03125 C129.366349,103.07708 130.386199,102.99024 131.145959,103.75 L139.020959,108.6875 C143.354239,110.84923 150.217159,111.55866 152.895959,110.125 C154.516119,109.25792 155.024009,108.054 154.989709,105.25 C154.952909,102.23604 154.111529,100.7081 150.552209,97.09375 C145.822899,92.29133 145.679909,91.0625 149.802209,91.0625 C151.683149,91.0625 153.811049,92.5063 157.208459,96.125 C160.051409,99.15312 162.454649,100.92725 163.145959,100.5 C163.951209,100.00233 164.159509,96.80241 163.833459,90.03125 C163.275909,78.45257 161.367939,74.16549 155.989709,72.40625 C149.687569,70.91325 149.491719,70.9163 146.927209,70.9375 C143.081659,70.77792 128.895039,68.40156 124.552209,67.1875 C119.011179,65.63845 105.428919,57.32209 103.927209,53.09375 C102.632749,49.44894 96.868059,47.0625 93.395959,47.0625 C91.714809,47.0625 75.603799,37.06254 68.145959,32.1875 C60.688119,27.31246 61.915739,28.02826 60.034189,26.61839 C58.152629,25.20852 56.958419,24.0625 56.645959,24.0625 C56.333499,24.0625 53.218719,22.50492 50.427209,20.625 C47.635699,18.74508 44.059609,17.06884 42.458459,16.875 C35.049059,14.26546 29.212919,19.12878 26.436809,25.2596 Z M41.208459,18.84375 C43.200989,18.90045 51.154239,23.36445 65.614709,32.59375 C77.405029,40.11883 87.052209,46.60256 87.052209,47 C87.052209,47.39742 85.514219,48.07831 84.177209,48.6875 C82.840189,49.29668 80.856119,50.75841 79.614709,52.4375 C78.373299,54.11661 77.423779,56.0207 77.114709,56.0001673 C75.449139,55.88859 29.982109,29.33194 29.552209,28.21875 C28.237449,24.8143 35.857819,18.6916 41.208459,18.84375 Z M92.333459,48.7498831 C95.548929,48.7372 98.764819,49.77509 101.083459,52.09375 C105.105909,56.1162 104.407029,62.46447 99.583459,65.625 C96.894119,67.38709 89.605069,68.42498 87.052209,67.40625 C83.362179,65.93371 80.052209,61.62731 80.052209,58.3125 C80.052209,52.57569 86.194829,48.77436 92.333459,48.7498831 Z M105.895959,58.78125 L114.364709,64 C122.692819,69.16075 125.749219,70.00561 144.958459,72.53125 C152.097839,73.46992 157.034219,74.64716 158.114709,75.625 C160.078989,77.40264 162.052209,84.28709 162.052209,89.375 L162.052209,92.78125 L157.677209,88.40625 C152.621629,83.35067 148.704939,82.74266 143.208459,86.09375 L139.895959,88.125 L144.927209,93.9375 C147.703479,97.14219 150.722429,100.38447 151.614709,101.125 C153.099879,102.35758 153.086759,102.52214 151.395959,103.1875 C147.343379,104.78227 141.136579,102.90541 134.177209,98 C130.260759,95.23942 129.464679,95.03458 127.427209,96.125 C124.164059,97.87138 122.965359,96.61405 117.614709,85.6875 C113.176529,76.62428 113.004399,76.39433 106.052209,72.5 C99.278759,68.70578 99.059509,68.49955 100.927209,66.96875 C101.998659,66.09055 103.554919,64.97256 104.583459,63.28125 L105.895959,58.78125 Z" id="path3276-5-1" fill="#004926"></path>
            </g>
        </g>
    </g>
</svg>