<?xml version="1.0" encoding="UTF-8"?>
<svg width="48px" height="48px" viewBox="0 0 48 48" version="1.1" xmlns="http://www.w3.org/2000/svg" xmlns:xlink="http://www.w3.org/1999/xlink">
    <title>mark_bw</title>
    <g id="mark_bw" stroke="none" stroke-width="1" fill="none" fill-rule="evenodd">
        <rect fill="#FFFFFF" x="0" y="0" width="48" height="48"></rect>
        <path d="M21.851313,20.3763079 L19.1457751,23.8048801 L22.7813427,20.7944251 L21.851313,20.3763079 Z M29.1224508,13.3519182 L26.4169102,15.5261335 L27.3469399,16.0278747 L29.1224508,13.3519182 Z M29.7142869,18.3693379 L38,16.6132425 L27.8542276,16.6968638 L28.5306147,17.7003488 L29.7142869,18.3693379 Z M24.0495632,21.128921 L26.9242006,32 L26.6705554,22.1324059 L24.0495632,21.128921 Z M9,19.7073188 L19.0612267,17.8675967 L21.6822162,19.7909427 L9,19.7073188 Z M23.3731788,8 L25.4868806,14.9407683 L24.4423037,14.8797173 L23.204082,14.1881553 L23.3731788,8 Z" id="rose" fill="#000000" fill-rule="nonzero"></path>
        <path d="M23.8473925,2 C10.8588273,2 0.0310819061,10.7683508 0.0310819061,21.7958873 C0.0277741461,23.4026004 -0.0371682091,24.653489 0.0310819061,26.0869349 C0.555544739,37.1020595 10.8588273,46 23.8473925,46 C36.8359603,46 47.0914632,37.1770885 47.9328605,26.1958095 L47.941251,26.1706801 L48,24.9151785 L47.941251,21.8544896 L47.941251,21.8293602 L47.9328605,21.8125982 C47.1844247,10.8237885 36.8359603,2 23.8473925,2 L23.8473925,2 Z M23.8473925,2.67047619 C36.5316276,2.67047619 46.8151469,11.2596061 46.8151469,21.8544762 C46.8151469,32.4493463 36.5316276,41.0384762 23.8473925,41.0384762 C11.1631573,41.0384762 0.87963799,32.4493463 0.87963799,21.8544762 C0.87963799,11.2596061 11.1631573,2.67047619 23.8473925,2.67047619 Z M23.8725906,6.37485714 C20.4017203,6.37485714 17.1762052,7.2585394 14.477073,8.78019048 C14.839383,8.99726921 15.2335389,9.23320978 15.6536137,9.49257143 C18.0560048,8.30547188 20.864995,7.6152381 23.8725906,7.6152381 C28.3734919,7.6152381 32.4573466,9.15747547 35.3690736,11.6045714 C38.2808033,14.0516674 40.0164092,17.3624627 40.0164092,20.9577143 C40.0164092,21.1739965 40.0120527,21.3889512 39.9996015,21.6030476 C40.3313967,21.6567662 40.6401344,21.7062178 40.9156224,21.7622857 C40.9324571,21.495463 40.9408206,21.2286269 40.9408206,20.9577143 C40.9408206,16.8495458 38.9767749,13.1665208 35.8816957,10.5653333 C32.7866193,7.96414854 28.5377558,6.37485714 23.8725771,6.37485714 L23.8725906,6.37485714 Z M10.9306433,11.4453333 C8.39528023,13.9674314 6.82955874,17.2922987 6.82955874,20.9577143 C6.82955874,25.0658828 8.79360445,28.7237676 11.8886836,31.3249524 C14.98376,33.9261399 19.2074119,35.5070476 23.8725906,35.5070476 C28.5377693,35.5070476 32.7866328,33.9261399 35.8817092,31.3249524 C36.6122105,30.7110188 37.271482,30.0372117 37.8650206,29.3135238 C37.5568691,29.1748318 37.2345024,29.0132846 36.9069803,28.8190476 C36.4410568,29.3446366 35.92446,29.8440958 35.3690736,30.3108571 C32.4573466,32.7579531 28.3734919,34.2666667 23.8725906,34.2666667 C19.3716892,34.2666667 15.3130489,32.7579531 12.4013192,30.3108571 C9.48960288,27.8637612 7.75398354,24.5529632 7.75398354,20.9577143 C7.75398354,17.5701199 9.30011664,14.4383256 11.9138952,12.040381 C11.5544949,11.8274404 11.2603409,11.6427269 10.9306433,11.4453333 Z M40.2685251,24.528 C39.9781414,24.5151 39.6803381,24.563546 39.3693119,24.6704762 C39.1320863,25.3448251 38.8378839,25.9943127 38.4785025,26.6232381 L38.9743304,27.1931429 C39.0434814,27.2727472 39.1146627,27.3485726 39.1844269,27.4278095 C39.7108663,26.5187162 40.1309034,25.5561591 40.4281985,24.5447619 C40.3756723,24.538379 40.3213713,24.5303601 40.2685251,24.528 Z" id="compass" fill="#000000" fill-rule="nonzero"></path>
        <g id="g4897" transform="translate(7.0134, 6.3324)" fill="#000000" fill-rule="nonzero">
            <path d="M2.81248043,2.92472284 C2.5155404,2.44557642 3.2462703,1.81499356 3.99752984,1.90208305 C5.07785502,2.02732264 4.95330575,3.0302397 3.84409549,3.13761512 C3.37727374,3.18280522 2.9130471,3.08700221 2.81248043,2.92472284 L2.81248043,2.92472284 Z M0.0960322626,2.44195316 C-0.284760837,3.44027076 0.51895493,5.06039333 1.58933801,5.83366425 L2.62301302,6.57956901 L3.44788231,7.14544019 C4.26478071,7.14731752 5.7465335,8.21995338 8.65698583,9.86490234 C11.4272671,11.4306305 14.0501998,13.1059038 14.489266,13.5860452 C15.3126481,14.4864518 16.2992696,14.9940452 17.2289249,14.9940452 C17.7668904,14.9940452 21.748339,17.1319765 22.6746274,17.9189976 C22.9499917,18.1529589 23.697653,19.3722547 24.3301882,20.6260452 C24.9627233,21.879833 25.7307987,23.1346104 26.044576,23.4169023 C26.5467774,23.8687094 26.7024518,23.884951 27.2967514,23.5677595 C27.7762126,23.3118602 28.0504743,23.2885705 28.2547917,23.4923309 L30.3725649,24.8165214 C31.537886,25.3962768 33.3834871,25.5865392 34.1038795,25.2020452 C34.5395788,24.9695026 34.6761624,24.6466227 34.6669383,23.8946166 C34.6570419,23.0863013 34.430775,22.6765223 33.4735899,21.7071881 C32.2017669,20.4192248 32.1633135,20.0896642 33.2718972,20.0896642 C33.7777263,20.0896642 34.3499688,20.4768777 35.2636125,21.4473785 C36.0281488,22.2594915 36.6744367,22.7352962 36.8603462,22.6207119 C37.0768969,22.4872415 37.1329137,21.6290534 37.0452312,19.8130928 C36.8952928,16.7078011 36.3821947,15.5580471 34.9358619,15.0862357 C33.2410678,14.6858273 33.1883991,14.6866453 32.4987419,14.6923309 C31.4645829,14.6495331 27.6494662,14.012216 26.4815768,13.6866166 C24.9914632,13.2711762 21.3388732,11.0408076 20.935028,9.90680711 C20.5869172,8.92930378 19.0366561,8.2892833 18.1029266,8.2892833 C17.6508257,8.2892833 13.3181952,5.60738926 11.3126062,4.29994996 C9.30701715,2.99251066 9.63715311,3.18448141 9.13115995,2.8063677 C8.6251641,2.42825399 8.30401288,2.12090234 8.21998501,2.12090234 C8.13595715,2.12090234 7.29831937,1.70317422 6.5476165,1.19899758 C5.79691364,0.694820942 4.83521872,0.245269338 4.40463173,0.193283296 C2.41206936,-0.506570479 0.842593701,0.797725627 0.0960322626,2.44195316 Z M4.06847726,0.721283296 C4.60431556,0.736489696 6.74313201,1.93369198 10.6318934,4.40890234 C13.8025884,6.42705713 16.3969426,8.16593177 16.3969426,8.27252139 C16.3969426,8.37910565 15.9833408,8.56171386 15.6237873,8.72509282 C15.2642311,8.88846909 14.7306679,9.28049116 14.3968235,9.73080711 C14.0629791,10.1811284 13.8076307,10.6917872 13.7245145,10.6862805 C13.2766035,10.6563566 1.04944703,3.53411597 0.933836782,3.23556901 C0.580266817,2.32252794 2.62956399,0.680478115 4.06847726,0.721283296 Z M17.8171953,8.74182337 C18.681911,8.73842189 19.5467396,9.0167741 20.1702766,9.63861663 C21.2520082,10.7173994 21.0640629,12.419945 19.7668912,13.267569 C19.0436643,13.7401448 17.0834669,14.018497 16.3969426,13.7452833 C15.4046065,13.3503621 14.5144775,12.1954266 14.5144775,11.3064262 C14.5144775,9.76786835 16.1663729,8.74838784 17.8171953,8.74182337 Z M21.4644713,11.4321404 L23.7419179,12.8317595 C25.981543,14.2158235 26.803481,14.4424069 31.9692986,15.1197595 C33.8892463,15.3715018 35.2167552,15.6872264 35.5073245,15.9494738 C36.0355657,16.4262199 36.5662111,18.2725638 36.5662111,19.6370928 L36.5662111,20.5506166 L35.3896704,19.3772833 C34.0301057,18.0214249 32.9768154,17.8583624 31.4986824,18.7570928 L30.607873,19.3018547 L31.9608948,20.8607119 C32.7074992,21.7201792 33.5193661,22.5897278 33.7593212,22.7883309 C34.1587184,23.1188971 34.1551902,23.1630306 33.7004942,23.3414738 C32.6106599,23.7691759 30.941505,23.2658199 29.0699663,21.9502357 C28.0167405,21.2098744 27.8026559,21.1549383 27.2547321,21.4473785 C26.3771941,21.915741 26.0548355,21.5785371 24.6159195,18.6481404 C23.4223882,16.2174712 23.3760984,16.1558008 21.5064906,15.1113785 C19.6849502,14.0938049 19.6259887,14.0384959 20.1282573,13.62795 C20.4163954,13.3924251 20.8349104,13.0925908 21.1115091,12.6389976 L21.4644713,11.4321404 Z" id="wrench"></path>
        </g>
    </g>
</svg>